<svg width="19" height="18" viewBox="0 0 19 18" fill="none" xmlns="http://www.w3.org/2000/svg">
    <path fill-rule="evenodd" clip-rule="evenodd"
        d="M0.363525 0.9C0.363525 0.402944 0.766469 0 1.26353 0H7.56353C8.06058 0 8.46352 0.402944 8.46352 0.9V7.2C8.46352 7.69706 8.06058 8.1 7.56353 8.1H1.26353C0.766469 8.1 0.363525 7.69706 0.363525 7.2V0.9ZM2.16353 1.8V6.3H6.66353V1.8H2.16353Z"
        fill="currentColor" />
    <path fill-rule="evenodd" clip-rule="evenodd"
        d="M10.2635 0.9C10.2635 0.402944 10.6665 0 11.1635 0H17.4635C17.9606 0 18.3635 0.402944 18.3635 0.9V7.2C18.3635 7.69706 17.9606 8.1 17.4635 8.1H11.1635C10.6665 8.1 10.2635 7.69706 10.2635 7.2V0.9ZM12.0635 1.8V6.3H16.5635V1.8H12.0635Z"
        fill="currentColor" />
    <path fill-rule="evenodd" clip-rule="evenodd"
        d="M10.2635 10.8C10.2635 10.3029 10.6665 9.9 11.1635 9.9H17.4635C17.9606 9.9 18.3635 10.3029 18.3635 10.8V17.1C18.3635 17.5971 17.9606 18 17.4635 18H11.1635C10.6665 18 10.2635 17.5971 10.2635 17.1V10.8ZM12.0635 11.7V16.2H16.5635V11.7H12.0635Z"
        fill="currentColor" />
    <path fill-rule="evenodd" clip-rule="evenodd"
        d="M0.363525 10.8C0.363525 10.3029 0.766469 9.9 1.26353 9.9H7.56353C8.06058 9.9 8.46352 10.3029 8.46352 10.8V17.1C8.46352 17.5971 8.06058 18 7.56353 18H1.26353C0.766469 18 0.363525 17.5971 0.363525 17.1V10.8ZM2.16353 11.7V16.2H6.66353V11.7H2.16353Z"
        fill="currentColor" />
</svg>