<svg width="48" height="48" viewBox="0 0 48 48" fill="none" xmlns="http://www.w3.org/2000/svg">
    <path fill-rule="evenodd" clip-rule="evenodd"
        d="M14 43C14 40.7908 15.7909 39 18 39C20.2091 39 22 40.7908 22 43C22 45.2091 20.2091 47 18 47C15.7909 47 14 45.2091 14 43Z"
        fill="black" />
    <path fill-rule="evenodd" clip-rule="evenodd"
        d="M36 43C36 40.7908 37.7908 39 40 39C42.2091 39 44 40.7908 44 43C44 45.2091 42.2091 47 40 47C37.7908 47 36 45.2091 36 43Z"
        fill="black" />
    <path fill-rule="evenodd" clip-rule="evenodd"
        d="M0 3C0 1.89543 0.89543 1 2 1H10C10.9532 1 11.774 1.67277 11.9611 2.60749L13.6409 11H46C46.596 11 47.161 11.2659 47.541 11.7251C47.9209 12.1844 48.0762 12.7892 47.9646 13.3747L44.7617 30.1696C44.4874 31.5508 43.7359 32.7915 42.639 33.6745C41.5476 34.5531 40.1832 35.0219 38.7827 35H19.3773C17.9767 35.0219 16.6124 34.5531 15.521 33.6745C14.4245 32.7919 13.6733 31.5518 13.3987 30.1713L10.0576 13.4784C10.044 13.4232 10.0328 13.3671 10.0239 13.3102L8.36063 5H2C0.89543 5 0 4.10457 0 3ZM14.4415 15L17.3217 29.3904C17.4131 29.8508 17.6636 30.2643 18.0292 30.5587C18.3949 30.853 18.8524 31.0094 19.3217 31.0004L19.36 31H38.8L38.8383 31.0004C39.3076 31.0094 39.7651 30.853 40.1308 30.5587C40.4947 30.2657 40.7445 29.8546 40.837 29.3968L43.5825 15H14.4415Z"
        fill="black" />
</svg>