<svg width="48" height="48" viewBox="0 0 48 48" fill="none" xmlns="http://www.w3.org/2000/svg">
    <path fill-rule="evenodd" clip-rule="evenodd"
        d="M24 48C37.2547 48 48 37.2547 48 24C48 10.7452 37.2547 0 24 0C10.7452 0 0 10.7452 0 24C0 37.2547 10.7452 48 24 48ZM25.8 14.472C25.8 13.4779 24.9941 12.672 24 12.672C23.0059 12.672 22.2 13.4779 22.2 14.472V24.072C22.2 24.5494 22.3896 25.0073 22.7273 25.3447L28.7273 31.3447C29.4303 32.0477 30.5698 32.0477 31.2727 31.3447C31.9757 30.6418 31.9757 29.5022 31.2727 28.7993L25.8 23.3263V14.472Z"
        fill="currentColor" />
</svg>