<svg width="67" height="48" viewBox="0 0 67 48" fill="none" xmlns="http://www.w3.org/2000/svg">
    <path
        d="M39.0636 4.74847C38.0922 4.64804 36.8352 4.64516 34.9251 4.64516H33.2903C32.0076 4.64516 30.9677 3.60533 30.9677 2.32258C30.9677 1.03987 32.0076 2.68046e-06 33.2903 2.68046e-06H35.0394C36.8045 -5.9255e-05 38.3031 -9.0699e-05 39.5415 0.127961C40.8601 0.264281 42.0786 0.560333 43.23 1.27188C44.3814 1.98342 45.1912 2.94104 45.9029 4.0595C46.5303 5.04567 47.1592 6.28738 47.887 7.74194H51.4628C52.342 7.74188 53.149 7.74182 53.8213 7.80223C54.5481 7.86751 55.3403 8.01749 56.107 8.4554C56.9481 8.93571 57.6449 9.63258 58.1252 10.4736C58.5631 11.2403 58.7133 12.0325 58.7786 12.7592C58.839 13.4317 58.8387 14.2388 58.8387 15.1178V15.2074L58.839 15.4073C58.8409 16.2117 58.843 17.073 58.5817 17.8904C58.407 18.4379 58.146 18.9541 57.809 19.4199C57.3058 20.1148 56.6112 20.6239 55.9624 21.0996L55.8011 21.2179L54.9417 21.8512L56.4502 24.868C62.1637 25.5958 66.5806 30.4757 66.5806 36.3871C66.5806 42.8008 61.3815 48 54.9677 48C49.3496 48 44.6632 44.0104 43.5871 38.7097H27.6387C26.5627 44.0104 21.8763 48 16.2581 48C10.6301 48 5.93719 43.9965 4.87193 38.6821C2.27216 38.4189 0.222686 36.3323 0.0167511 33.7155C-0.000250236 33.4994 -0.000126187 33.2655 2.86517e-05 33.0404L5.96615e-05 32.9806L2.86517e-05 32.8627C-3.32838e-05 31.8252 -6.42923e-05 31.1653 0.0453963 30.5878C0.613097 23.3745 6.34234 17.6453 13.5556 17.0776C14.1331 17.0322 14.7928 17.0322 15.8303 17.0323H15.9484H17.9675C20.7499 17.0322 23.0701 17.0321 24.912 17.2797C26.8561 17.5411 28.6114 18.1161 30.022 19.5267C31.4322 20.937 32.0073 22.6922 32.2687 24.6364C32.5164 26.4783 32.5161 28.7985 32.5161 31.5809V34.0645H43.5871C44.4303 29.9114 47.4893 26.5632 51.4767 25.3081L43.9271 10.2087C43.0727 8.50025 42.5082 7.37714 41.9839 6.55315C41.4884 5.77456 41.1332 5.43676 40.7879 5.2233C40.4426 5.00984 39.9818 4.84339 39.0636 4.74847Z"
        fill="currentColor" />
</svg>