<svg width="50" height="48" viewBox="0 0 50 48" fill="none" xmlns="http://www.w3.org/2000/svg">
    <path
        d="M19.5056 15.2817L20.8776 20.2475C22.171 24.9289 22.8177 27.2698 24.719 28.3346C26.6202 29.3992 29.0338 28.7719 33.8606 27.5175L38.9805 26.1871C43.8075 24.9326 46.2209 24.3054 47.3188 22.4611C48.4165 20.6171 47.7698 18.2763 46.4764 13.5947L45.1046 8.62903C43.8113 3.94739 43.1646 1.60655 41.2632 0.541859C39.3618 -0.522835 36.9482 0.104408 32.1214 1.35884L27.0015 2.68938C22.1744 3.94381 19.7611 4.57103 18.6633 6.41516C17.5656 8.25926 18.2123 10.6001 19.5056 15.2817Z"
        fill="currentColor" />
    <path
        d="M0.0733099 5.992C0.368624 4.92763 1.47089 4.30417 2.53527 4.59948L7.07858 5.86C9.52369 6.53839 11.4587 8.42332 12.1337 10.8667L17.87 31.6299L18.2921 33.0875C19.9805 33.7177 21.4307 34.8985 22.351 36.4668L23.1777 36.2116L46.8319 30.0645C47.901 29.7866 48.993 30.428 49.2709 31.4971C49.5487 32.5662 48.9071 33.6579 47.838 33.9358L24.2713 40.0605L23.3947 40.3312C23.3769 43.7203 21.0384 46.8159 17.5001 47.7354C13.2587 48.8375 8.89914 46.3964 7.76266 42.2827C6.6262 38.169 9.1432 33.9406 13.3846 32.8385C13.5948 32.7838 13.8052 32.7379 14.0156 32.7003L8.27805 11.9319C7.98933 10.8867 7.1441 10.0294 6.00917 9.71449L1.46585 8.45398C0.401452 8.15867 -0.222004 7.0564 0.0733099 5.992Z"
        fill="currentColor" />
</svg>