<svg width="33" height="32" viewBox="0 0 33 32" fill="none" xmlns="http://www.w3.org/2000/svg">
    <path
        d="M16.5 13.36C17.9581 13.36 19.14 14.5419 19.14 16C19.14 17.4581 17.9581 18.64 16.5 18.64C15.0419 18.64 13.86 17.4581 13.86 16C13.86 14.5419 15.0419 13.36 16.5 13.36Z"
        fill="currentColor" />
    <path fill-rule="evenodd" clip-rule="evenodd"
        d="M16.5 0C7.66344 0 0.5 7.16344 0.5 16C0.5 24.8365 7.66344 32 16.5 32C25.3365 32 32.5 24.8365 32.5 16C32.5 7.16344 25.3365 0 16.5 0ZM8.1 16C8.1 11.3608 11.8608 7.6 16.5 7.6C21.1392 7.6 24.9 11.3608 24.9 16C24.9 17.0123 24.7214 17.9802 24.3952 18.8757C24.3386 19.031 24.2272 19.1982 24.0493 19.3624L23.9203 19.4813C23.439 19.9253 22.7165 19.9821 22.1717 19.6189C21.777 19.3558 21.54 18.913 21.54 18.4386V16C21.54 13.2165 19.2835 10.96 16.5 10.96C13.7165 10.96 11.46 13.2165 11.46 16C11.46 18.7835 13.7165 21.04 16.5 21.04C17.6227 21.04 18.6598 20.6728 19.4976 20.052C19.7891 20.6773 20.249 21.2216 20.8403 21.6158C22.307 22.5936 24.2522 22.4403 25.5477 21.2453L25.6766 21.1264C26.0768 20.7571 26.4376 20.281 26.6502 19.6973C27.071 18.5422 27.3 17.2965 27.3 16C27.3 10.0353 22.4646 5.2 16.5 5.2C10.5353 5.2 5.7 10.0353 5.7 16C5.7 21.9646 10.5353 26.8 16.5 26.8C17.1627 26.8 17.7 26.2627 17.7 25.6C17.7 24.9373 17.1627 24.4 16.5 24.4C11.8608 24.4 8.1 20.6392 8.1 16Z"
        fill="currentColor" />
</svg>