<svg width="14" height="11" viewBox="0 0 14 11" fill="none" xmlns="http://www.w3.org/2000/svg">
    <path fill-rule="evenodd" clip-rule="evenodd"
        d="M0.0305117 5.301C0.961053 2.33829 3.72853 0.187988 7.00001 0.187988C10.2714 0.187988 13.0389 2.33832 13.9695 5.301C14.0102 5.43052 14.0102 5.56941 13.9695 5.69894C13.0389 8.66163 10.2714 10.8119 7.00001 10.8119C3.72853 10.8119 0.961039 8.66163 0.0305111 5.69893C-0.0101705 5.56941 -0.0101704 5.43052 0.0305117 5.301ZM1.36387 5.49997C2.18438 7.82167 4.39889 9.48395 7.00001 9.48395C9.60108 9.48395 11.8156 7.82168 12.6361 5.49997C11.8156 3.17826 9.60108 1.51598 7.00001 1.51598C4.39889 1.51598 2.18439 3.17825 1.36387 5.49997ZM6.99967 4.17197C6.26627 4.17197 5.6717 4.76651 5.6717 5.49997C5.6717 6.23342 6.26627 6.82796 6.99967 6.82796C7.73314 6.82796 8.32767 6.23343 8.32767 5.49997C8.32767 4.76651 7.73314 4.17197 6.99967 4.17197ZM4.3437 5.49997C4.3437 4.03307 5.53285 2.84398 6.99967 2.84398C8.46657 2.84398 9.65566 4.03308 9.65566 5.49997C9.65566 6.96686 8.46657 8.15596 6.99967 8.15596C5.53285 8.15596 4.3437 6.96687 4.3437 5.49997Z"
        fill="currentColor" />
</svg>