<svg width="20" height="33" viewBox="0 0 20 33" fill="none" xmlns="http://www.w3.org/2000/svg">
    <path fill-rule="evenodd" clip-rule="evenodd"
        d="M7.46521 3.19044C9.10189 1.55376 11.3217 0.634277 13.6363 0.634277H18C18.8033 0.634277 19.4545 1.2855 19.4545 2.08882V7.907C19.4545 8.71033 18.8033 9.36155 18 9.36155H13.6363V12.2706H18C18.4479 12.2706 18.8708 12.477 19.1464 12.83C19.4221 13.1831 19.5197 13.6434 19.4111 14.078L17.9565 19.8961C17.7946 20.5437 17.2129 20.9979 16.5454 20.9979H13.6363V31.1797C13.6363 31.9831 12.9851 32.6343 12.1818 32.6343H6.36359C5.56027 32.6343 4.90905 31.9831 4.90905 31.1797V20.9979H1.99996C1.19663 20.9979 0.54541 20.3467 0.54541 19.5434V13.7252C0.54541 12.9219 1.19663 12.2706 1.99996 12.2706H4.90905V9.36155C4.90905 7.04693 5.82852 4.82712 7.46521 3.19044ZM13.6363 3.54337C12.0932 3.54337 10.6134 4.15635 9.52224 5.24747C8.43112 6.3386 7.81814 7.81847 7.81814 9.36155V13.7252C7.81814 14.5285 7.16692 15.1797 6.36359 15.1797H3.4545V18.0888H6.36359C7.16692 18.0888 7.81814 18.74 7.81814 19.5434V29.7252H10.7272V19.5434C10.7272 18.74 11.3784 18.0888 12.1818 18.0888H15.4097L16.137 15.1797H12.1818C11.3784 15.1797 10.7272 14.5285 10.7272 13.7252V9.36155C10.7272 8.59001 11.0337 7.85007 11.5793 7.30451C12.1248 6.75895 12.8648 6.45246 13.6363 6.45246H16.5454V3.54337H13.6363Z"
        fill="currentColor" />
</svg>