<svg width="17" height="18" viewBox="0 0 17 18" fill="none" xmlns="http://www.w3.org/2000/svg">
    <path
        d="M11.5398 3.0205C10.6397 2.25769 9.71262 1.46637 8.7743 0.531047L8.23947 0L7.71443 0.531794C6.02529 2.22544 5.22722 4.8259 4.88069 6.38603C4.61545 5.97492 4.41863 5.52353 4.29789 5.04942L3.98062 3.82456L3.05804 4.69164C1.44166 6.20901 0.363819 7.71439 0.363819 10.1251C0.348725 11.8639 0.915052 13.558 1.97286 14.9381C3.03067 16.3182 4.51929 17.3054 6.20231 17.7428C6.7094 17.8661 7.22697 17.9414 7.74818 17.9678C7.91114 17.9884 8.07521 17.9991 8.23947 18C8.3257 18 8.40977 17.9925 8.49374 17.9872C10.537 17.9257 12.4759 17.0705 13.8989 15.6028C15.3218 14.1352 16.1168 12.1708 16.1151 10.1266C16.1151 6.90583 13.9947 5.10568 11.5398 3.0205ZM8.38951 16.4872C8.31445 16.4872 8.23947 16.4946 8.15996 16.4939C7.48485 16.4732 6.84419 16.1909 6.37336 15.7067C5.90253 15.2225 5.63838 14.574 5.63675 13.8986C5.63675 12.9476 6.1468 12.4735 7.30114 11.4909C7.59216 11.2434 7.90869 10.9742 8.24172 10.6659C8.53353 10.9306 8.81705 11.1707 9.07879 11.3935C10.2384 12.3775 10.8437 12.9364 10.8437 13.8964C10.8424 14.5598 10.5876 15.1977 10.1313 15.6793C9.675 16.161 9.05188 16.45 8.38951 16.4872ZM12.1548 15.1587L12.1398 15.1693C12.2744 14.7591 12.3433 14.3303 12.3438 13.8986C12.3438 12.1997 11.2292 11.2532 10.0502 10.2519C9.63234 9.8978 9.20102 9.53183 8.77052 9.10123L8.23947 8.571L7.70917 9.10123C7.22313 9.58655 6.7476 9.99159 6.32831 10.3486C5.15222 11.3492 4.13588 12.2141 4.13588 13.8986C4.13748 14.3488 4.21351 14.7956 4.3609 15.221C3.58013 14.6215 2.94851 13.8496 2.51537 12.9656C2.08222 12.0816 1.85928 11.1095 1.86395 10.1251C1.85161 8.80889 2.36104 7.54137 3.28081 6.5998C3.43924 6.92122 3.62706 7.2273 3.84186 7.51412C3.99874 7.72582 4.21414 7.88699 4.46151 7.97775C4.70887 8.06851 4.97739 8.08491 5.23397 8.02492C5.49498 7.96681 5.73374 7.83475 5.92168 7.64454C6.10963 7.45433 6.23882 7.21401 6.29381 6.95232C6.60787 5.22842 7.28713 3.59165 8.28601 2.15193C9.07726 2.90199 9.86114 3.56579 10.5684 4.16659C12.9176 6.16176 14.6187 7.60338 14.6187 10.1296C14.6205 11.1007 14.3993 12.0591 13.972 12.9311C13.5446 13.8031 12.9226 14.5652 12.1541 15.1587H12.1548Z"
        fill="currentColor" />
</svg>