<svg width="46" height="48" viewBox="0 0 46 48" fill="none" xmlns="http://www.w3.org/2000/svg">
    <path fill-rule="evenodd" clip-rule="evenodd"
        d="M27.0691 0.365376C26.1804 1.07288e-07 25.0536 0 22.8 0C20.5464 0 19.4196 1.07288e-07 18.5309 0.365376C17.3458 0.852552 16.4042 1.78699 15.9133 2.96311C15.6892 3.50002 15.6016 4.1244 15.5672 5.03518C15.5168 6.37363 14.8252 7.61254 13.6564 8.28223C12.4876 8.9519 11.0607 8.9269 9.86757 8.30102C9.05562 7.87512 8.46693 7.63829 7.88637 7.56245C6.61461 7.39627 5.32843 7.7383 4.31078 8.51328C3.54753 9.09451 2.98413 10.063 1.85735 11.9998C0.730579 13.9367 0.167203 14.9052 0.0416345 15.8518C-0.125813 17.1139 0.218826 18.3904 0.999714 19.4004C1.35614 19.8614 1.85704 20.2488 2.63447 20.7336C3.77738 21.4464 4.51276 22.6606 4.51269 24C4.51262 25.3394 3.77726 26.5534 2.63447 27.2659C1.85692 27.751 1.35592 28.1386 0.999475 28.5996C0.218587 29.6095 -0.126029 30.8858 0.0413948 32.148C0.166963 33.0946 0.730362 34.0632 1.85711 36C2.98389 37.9368 3.54729 38.9054 4.31054 39.4865C5.32819 40.2614 6.61437 40.6034 7.88613 40.4374C8.46667 40.3615 9.05531 40.1246 9.86719 39.6989C11.0604 39.073 12.4874 39.048 13.6563 39.7176C14.8251 40.3874 15.5168 41.6263 15.5672 42.965C15.6016 43.8756 15.6892 44.5001 15.9133 45.037C16.4042 46.213 17.3458 47.1475 18.5309 47.6347C19.4196 48 20.5464 48 22.8 48C25.0536 48 26.1804 48 27.0691 47.6347C28.2542 47.1475 29.1958 46.213 29.6866 45.037C29.9107 44.5001 29.9986 43.8756 30.0329 42.9648C30.0833 41.6263 30.7747 40.3874 31.9435 39.7176C33.1123 39.0478 34.5394 39.073 35.7326 39.6989C36.5446 40.1246 37.133 40.3613 37.7136 40.4371C38.9854 40.6034 40.2715 40.2614 41.2891 39.4865C42.0526 38.9052 42.6158 37.9368 43.7426 35.9998C44.8694 34.063 45.4327 33.0946 45.5585 32.148C45.7258 30.8858 45.3811 29.6093 44.6004 28.5994C44.2438 28.1383 43.7429 27.7507 42.9653 27.2659C41.8226 26.5534 41.0873 25.3392 41.0873 23.9998C41.0873 22.6603 41.8226 21.4466 42.9653 20.7341C43.7431 20.249 44.244 19.8617 44.6006 19.4004C45.3814 18.3906 45.726 17.1141 45.5587 15.8519C45.433 14.9053 44.8697 13.9369 43.7429 12C42.6161 10.0631 42.0528 9.09468 41.2894 8.51345C40.2718 7.73846 38.9856 7.39644 37.7138 7.56262C37.1333 7.63846 36.5446 7.87526 35.7329 8.30112C34.5396 8.92702 33.1126 8.95205 31.9438 8.2823C30.775 7.61258 30.0833 6.37358 30.0326 5.03506C29.9983 4.12435 29.9107 3.49999 29.6866 2.96311C29.1958 1.78699 28.2542 0.852552 27.0691 0.365376ZM22.8 31.2C26.8068 31.2 30.0547 27.9766 30.0547 24C30.0547 20.0234 26.8068 16.8 22.8 16.8C18.7932 16.8 15.5452 20.0234 15.5452 24C15.5452 27.9766 18.7932 31.2 22.8 31.2Z"
        fill="currentColor" />
</svg>