<svg width="48" height="48" viewBox="0 0 48 48" fill="none" xmlns="http://www.w3.org/2000/svg">
    <path
        d="M0 24.2976C0 10.8785 10.7451 0 23.9998 0C37.2547 0 47.9997 10.8785 47.9997 24.2976V36.882C48.0005 38.8425 48.0009 40.187 47.6563 41.3673C46.9824 43.6757 45.371 45.5849 43.224 46.6188C42.126 47.1477 40.8141 47.3568 38.9011 47.6618L38.5893 47.7117C37.9089 47.8205 37.3277 47.9133 36.8453 47.9613C36.3434 48.0113 35.8317 48.0266 35.3083 47.9222C33.5861 47.5788 32.1657 46.3502 31.5619 44.6813C31.3785 44.1741 31.3137 43.6598 31.284 43.1503C31.2557 42.6607 31.2557 42.0648 31.2557 41.3676L31.2554 31.3538C31.2542 30.3326 31.2533 29.454 31.4868 28.7016C32.0213 26.9798 33.4171 25.674 35.1545 25.2701C35.9138 25.0934 36.779 25.1638 37.7844 25.2453L38.0081 25.2633L38.2716 25.2845C40.1525 25.434 41.4393 25.5365 42.5318 25.9454C43.2996 26.233 44.0114 26.6287 44.651 27.1142V24.2976C44.651 12.7509 35.405 3.39038 23.9998 3.39038C12.5946 3.39038 3.34881 12.7509 3.34881 24.2976V27.1142C3.98822 26.6287 4.70023 26.233 5.46789 25.9454C6.56028 25.5365 7.84716 25.434 9.72804 25.2845L9.99163 25.2633L10.2154 25.2453C11.2208 25.1638 12.0859 25.0934 12.8454 25.2701C14.5827 25.674 15.9784 26.9798 16.5129 28.7016C16.7466 29.454 16.7455 30.3326 16.7443 31.3538L16.7441 41.3676C16.7441 42.0648 16.7441 42.6607 16.7157 43.1503C16.6861 43.6598 16.6212 44.1741 16.4377 44.6813C15.8341 46.3502 14.4138 47.5788 12.6915 47.9222C12.168 48.0266 11.6562 48.0113 11.1544 47.9613C10.6721 47.9133 10.0908 47.8205 9.41044 47.7117L9.09854 47.6618C7.18557 47.3568 5.87369 47.1477 4.77578 46.6188C2.62881 45.5849 1.01731 43.6757 0.343392 41.3673C0.059208 40.3941 0.00969623 39.3091 0.00144024 37.8593L0 37.3927V24.2976Z"
        fill="currentColor" />
</svg>