<svg width="48" height="48" viewBox="0 0 48 48" fill="none" xmlns="http://www.w3.org/2000/svg">
    <path fill-rule="evenodd" clip-rule="evenodd"
        d="M8.63105 3.25574C10.3271 2.55149 12.1455 2.18896 13.9819 2.18896C15.8184 2.18896 17.6368 2.55149 19.3329 3.25574C21.0289 3.95999 22.5693 4.99213 23.8656 6.29295L23.8728 6.30023L24 6.42911L24.1272 6.30025L24.1345 6.29295C25.4308 4.99213 26.9711 3.95999 28.6672 3.25574C30.3632 2.55149 32.1816 2.18896 34.0181 2.18896C35.8545 2.18896 37.6729 2.55149 39.369 3.25574C41.0645 3.95975 42.6043 4.99142 43.9004 6.29161C49.4491 11.8417 49.5724 21.0186 42.9976 27.7166L42.9834 27.731L25.5417 45.1726C25.1328 45.5815 24.5782 45.8112 24 45.8112C23.4218 45.8112 22.8672 45.5815 22.4584 45.1726L5.00239 27.7166C-1.57247 21.0186 -1.44902 11.8417 4.09968 6.2916C5.39571 4.99141 6.93558 3.95975 8.63105 3.25574ZM13.9819 6.54939C12.7194 6.54939 11.4692 6.79862 10.3032 7.28279C9.13717 7.76697 8.07818 8.47656 7.18696 9.37087L7.18429 9.37355C3.49185 13.066 3.04766 19.4944 8.10741 24.6551L24 40.5477L39.8926 24.6551C44.9524 19.4944 44.5082 13.066 40.8157 9.37355L40.8131 9.37087C39.9219 8.47656 38.8629 7.76697 37.6968 7.28279C36.5308 6.79862 35.2806 6.54939 34.0181 6.54939C32.7555 6.54939 31.5054 6.79862 30.3393 7.28279C29.1748 7.76633 28.1171 8.47469 27.2266 9.36735C27.2254 9.36852 27.2243 9.3697 27.2231 9.37087L25.5516 11.0641C25.1419 11.4791 24.5831 11.7127 24 11.7127C23.4169 11.7127 22.8581 11.4791 22.4485 11.0641L20.7769 9.37087C20.7758 9.3697 20.7746 9.36852 20.7734 9.36735C19.8829 8.47469 18.8252 7.76633 17.6607 7.28279C16.4947 6.79862 15.2445 6.54939 13.9819 6.54939Z"
        fill="black" />
</svg>