<svg width="17" height="18" viewBox="0 0 17 18" fill="none" xmlns="http://www.w3.org/2000/svg">
    <path fill-rule="evenodd" clip-rule="evenodd"
        d="M7.67947 0.172348C7.97491 -0.0574494 8.38858 -0.0574494 8.68402 0.172348L16.0476 5.89957C16.2469 6.05457 16.3635 6.29292 16.3635 6.5454V15.5453C16.3635 16.1963 16.1049 16.8206 15.6446 17.2809C15.1843 17.7412 14.56 17.9998 13.909 17.9998H2.45452C1.80354 17.9998 1.17923 17.7412 0.718914 17.2809C0.2586 16.8206 0 16.1963 0 15.5453V6.5454C0 6.29292 0.116565 6.05457 0.315864 5.89957L7.67947 0.172348ZM1.63635 6.94555V15.5453C1.63635 15.7623 1.72255 15.9704 1.87598 16.1238C2.02942 16.2773 2.23753 16.3635 2.45452 16.3635H13.909C14.1259 16.3635 14.3341 16.2773 14.4875 16.1238C14.6409 15.9704 14.7271 15.7623 14.7271 15.5453V6.94555L8.18175 1.85469L1.63635 6.94555Z"
        fill="currentColor" />
    <path fill-rule="evenodd" clip-rule="evenodd"
        d="M4.90905 9.00008C4.90905 8.5482 5.27536 8.1819 5.72722 8.1819H10.6363C11.0881 8.1819 11.4544 8.5482 11.4544 9.00008V17.1818C11.4544 17.6337 11.0881 18 10.6363 18C10.1844 18 9.81809 17.6337 9.81809 17.1818V9.81825H6.5454V17.1818C6.5454 17.6337 6.17908 18 5.72722 18C5.27536 18 4.90905 17.6337 4.90905 17.1818V9.00008Z"
        fill="currentColor" />
</svg>