<svg width="32" height="33" viewBox="0 0 32 33" fill="none" xmlns="http://www.w3.org/2000/svg">
    <path fill-rule="evenodd" clip-rule="evenodd"
        d="M8.72727 3.16642C5.51398 3.16642 2.90909 5.7713 2.90909 8.9846V23.5301C2.90909 26.7433 5.51398 29.3482 8.72727 29.3482H23.2727C26.486 29.3482 29.0909 26.7433 29.0909 23.5301V8.9846C29.0909 5.7713 26.486 3.16642 23.2727 3.16642H8.72727ZM0 8.9846C0 4.16466 3.90733 0.257324 8.72727 0.257324H23.2727C28.0927 0.257324 32 4.16466 32 8.9846V23.5301C32 28.35 28.0927 32.2573 23.2727 32.2573H8.72727C3.90733 32.2573 0 28.35 0 23.5301V8.9846Z"
        fill="currentColor" />
    <path
        d="M24 6.80278C23.1967 6.80278 22.5455 7.454 22.5455 8.25732C22.5455 9.06065 23.1967 9.71187 24 9.71187H24.0145C24.8179 9.71187 25.4691 9.06065 25.4691 8.25732C25.4691 7.454 24.8179 6.80278 24.0145 6.80278H24Z"
        fill="currentColor" />
    <path fill-rule="evenodd" clip-rule="evenodd"
        d="M17.1293 9.00077C15.6161 8.77638 14.0707 9.03485 12.7129 9.73939C11.3551 10.4439 10.254 11.5587 9.56625 12.9251C8.87851 14.2915 8.63912 15.84 8.88215 17.3502C9.12517 18.8605 9.83824 20.2558 10.9199 21.3374C12.0016 22.4191 13.3968 23.1322 14.9071 23.3752C16.4174 23.6182 17.9659 23.3788 19.3323 22.6911C20.6987 22.0033 21.8134 20.9022 22.5179 19.5444C23.2225 18.1866 23.481 16.6412 23.2566 15.128C23.0277 13.5845 22.3085 12.1556 21.2051 11.0522C20.1018 9.94888 18.6728 9.22965 17.1293 9.00077ZM16.7026 11.8784C15.7947 11.7438 14.8674 11.8988 14.0527 12.3216C13.2381 12.7443 12.5774 13.4131 12.1648 14.233C11.7521 15.0528 11.6085 15.9819 11.7543 16.8881C11.9001 17.7943 12.3279 18.6314 12.9769 19.2804C13.626 19.9294 14.4631 20.3572 15.3693 20.503C16.2754 20.6489 17.2045 20.5052 18.0244 20.0926C18.8442 19.6799 19.513 19.0193 19.9358 18.2046C20.3585 17.3899 20.5136 16.4627 20.3789 15.5548C20.2416 14.6287 19.8101 13.7713 19.1481 13.1093C18.4861 12.4473 17.6287 12.0157 16.7026 11.8784Z"
        fill="currentColor" />
</svg>