<svg width="25" height="18" viewBox="0 0 25 18" fill="none" xmlns="http://www.w3.org/2000/svg">
    <path fill-rule="evenodd" clip-rule="evenodd"
        d="M23.6286 0.244523C23.927 0.471322 24.1022 0.824569 24.1022 1.19936V15.5916C24.1022 15.9554 23.9371 16.2995 23.6533 16.5272C23.3695 16.7548 22.9978 16.8413 22.6427 16.7624L1.05429 11.965C0.50554 11.843 0.115112 11.3563 0.115112 10.7942V7.19613C0.115112 6.65737 0.474362 6.18473 0.993466 6.04053L22.5818 0.0437654C22.943 -0.0565462 23.3302 0.0177251 23.6286 0.244523ZM2.51382 8.10774V9.8321L21.7035 14.0965V2.77728L2.51382 8.10774Z"
        fill="currentColor" />
    <path fill-rule="evenodd" clip-rule="evenodd"
        d="M4.99174 11.077C5.63027 11.2531 6.00511 11.9135 5.82897 12.5521C5.74485 12.857 5.72161 13.1755 5.76059 13.4894C5.79957 13.8033 5.89999 14.1065 6.05612 14.3815C6.21226 14.6566 6.42104 14.8983 6.67057 15.0927C6.92009 15.2871 7.20546 15.4304 7.51038 15.5146C7.81531 15.5987 8.13381 15.6219 8.44772 15.5829C8.76162 15.544 9.06477 15.4435 9.33986 15.2874C9.61496 15.1313 9.85661 14.9225 10.051 14.673C10.2454 14.4234 10.3888 14.1381 10.4729 13.8331C10.649 13.1946 11.3095 12.8198 11.948 12.9959C12.5865 13.1721 12.9614 13.8325 12.7852 14.471C12.6173 15.0796 12.3312 15.6492 11.9432 16.1472C11.5552 16.6452 11.0729 17.0619 10.5239 17.3735C9.97483 17.6852 9.36978 17.8856 8.74328 17.9634C8.11677 18.0412 7.48108 17.9948 6.8725 17.8269C6.26391 17.659 5.69436 17.3729 5.19634 16.9849C4.69833 16.5969 4.28162 16.1146 3.97 15.5656C3.65838 15.0165 3.45795 14.4115 3.38016 13.785C3.30237 13.1585 3.34875 12.5228 3.51663 11.9142C3.69278 11.2756 4.35321 10.9008 4.99174 11.077Z"
        fill="currentColor" />
</svg>