<svg width="41" height="48" viewBox="0 0 41 48" fill="none" xmlns="http://www.w3.org/2000/svg">
    <path
        d="M15.2195 13.4634C15.2195 12.4936 14.4333 11.7073 13.4634 11.7073H7.13788C7.99839 5.10142 13.6473 0 20.4878 0C27.3282 0 32.9772 5.10142 33.8377 11.7073H24C23.0302 11.7073 22.2439 12.4936 22.2439 13.4634C22.2439 14.4333 23.0302 15.2195 24 15.2195H33.9512V18.7317H24C23.0302 18.7317 22.2439 19.518 22.2439 20.4878C22.2439 21.4576 23.0302 22.2439 24 22.2439H33.8377C32.9772 28.8499 27.3282 33.9512 20.4878 33.9512C13.6473 33.9512 7.99839 28.8499 7.13788 22.2439H13.4634C14.4333 22.2439 15.2195 21.4576 15.2195 20.4878C15.2195 19.518 14.4333 18.7317 13.4634 18.7317H7.02439V15.2195H13.4634C14.4333 15.2195 15.2195 14.4333 15.2195 13.4634Z"
        fill="currentColor" />
    <path fill-rule="evenodd" clip-rule="evenodd"
        d="M1.7561 16.3902C2.72596 16.3902 3.5122 17.1765 3.5122 18.1463V20.4878C3.5122 29.8633 11.1124 37.4634 20.4878 37.4634C29.8633 37.4634 37.4634 29.8633 37.4634 20.4878V18.1463C37.4634 17.1765 38.2497 16.3902 39.2195 16.3902C40.1893 16.3902 40.9756 17.1765 40.9756 18.1463V20.4878C40.9756 31.2112 32.7369 40.0107 22.2439 40.9014V46.2439C22.2439 47.2137 21.4576 48 20.4878 48C19.518 48 18.7317 47.2137 18.7317 46.2439V40.9014C8.23867 40.0107 0 31.2112 0 20.4878V18.1463C0 17.1765 0.78624 16.3902 1.7561 16.3902Z"
        fill="currentColor" />
</svg>