<svg width="48" height="48" viewBox="0 0 48 48" fill="none" xmlns="http://www.w3.org/2000/svg">
<path d="M46.7341 37.4226C46.7323 37.3985 46.7304 37.3739 46.7275 37.3494C46.7246 37.3247 46.7206 37.3001 46.7165 37.2756C46.714 37.2612 46.713 37.2469 46.71 37.2325C46.7084 37.2245 46.7057 37.2169 46.7039 37.209C46.6984 37.1838 46.6916 37.159 46.6846 37.1339C46.6786 37.1122 46.6728 37.0904 46.6657 37.0691C46.6581 37.046 46.6491 37.0234 46.6404 37.0006C46.6318 36.9786 46.6237 36.9565 46.614 36.935C46.6046 36.9138 46.5936 36.8931 46.5831 36.8721C46.5721 36.8506 46.5616 36.8288 46.5497 36.8079C46.5381 36.7877 46.5251 36.7682 46.5126 36.7483C46.4996 36.7281 46.487 36.7076 46.4731 36.688C46.4595 36.6688 46.4444 36.6505 46.4297 36.6318C46.4148 36.6129 46.4002 36.5938 46.3843 36.5756C46.3689 36.558 46.3523 36.5414 46.3361 36.5244C46.3188 36.5064 46.3018 36.4885 46.2835 36.4714C46.267 36.4559 46.2494 36.4411 46.232 36.4262C46.2122 36.4092 46.1923 36.3924 46.1715 36.3764C46.1649 36.3713 46.1591 36.3656 46.1523 36.3606C46.1401 36.3515 46.1271 36.3441 46.1145 36.3354C46.0941 36.3212 46.0736 36.3072 46.0525 36.294C46.0307 36.2803 46.0086 36.2676 45.9862 36.2552C45.967 36.2445 45.9476 36.2341 45.9278 36.2242C45.9034 36.2119 45.8787 36.2005 45.8538 36.1897C45.8347 36.1814 45.8156 36.1735 45.7962 36.166C45.7707 36.1561 45.7449 36.1469 45.7191 36.1385C45.6987 36.1318 45.6781 36.1257 45.6573 36.1199C45.6322 36.1129 45.6071 36.1065 45.5818 36.1008C45.5591 36.0957 45.5364 36.0912 45.5133 36.0871C45.4894 36.0829 45.4655 36.0792 45.4415 36.0761C45.417 36.0729 45.3925 36.0704 45.3678 36.0684C45.3442 36.0665 45.3206 36.0653 45.297 36.0644C45.2724 36.0635 45.2477 36.0632 45.2228 36.0636C45.1978 36.064 45.1728 36.0652 45.1479 36.0668C45.125 36.0683 45.1021 36.07 45.079 36.0725C45.051 36.0756 45.023 36.0798 44.9952 36.0843C44.9821 36.0864 44.969 36.0873 44.9559 36.0898C43.7585 36.319 42.5301 36.4352 41.3048 36.4352C29.284 36.4352 19.5042 25.3469 19.5042 11.7174C19.5042 8.32618 20.0995 5.04068 21.2733 1.95226C21.2766 1.94347 21.2787 1.93458 21.2818 1.92589C21.2908 1.90067 21.2988 1.87507 21.3064 1.84937C21.3126 1.82869 21.3188 1.80802 21.3238 1.78715C21.33 1.76232 21.3349 1.7372 21.3397 1.71208C21.3439 1.68986 21.3482 1.66764 21.3514 1.64532C21.3547 1.62184 21.3568 1.59807 21.3588 1.5744C21.361 1.55025 21.3632 1.52609 21.3641 1.50194C21.3649 1.4801 21.3645 1.45817 21.3643 1.43614C21.364 1.41006 21.3637 1.38397 21.362 1.35808C21.3607 1.33779 21.3583 1.3176 21.3561 1.29721C21.353 1.26948 21.3497 1.24185 21.345 1.21451C21.3418 1.19557 21.3377 1.17664 21.3337 1.1576C21.3276 1.1291 21.3211 1.10079 21.3133 1.07277C21.311 1.06466 21.3098 1.05654 21.3074 1.04852C21.3041 1.03732 21.2994 1.02678 21.2958 1.01567C21.2873 0.989684 21.2784 0.963791 21.2684 0.938285C21.2602 0.917029 21.2514 0.89616 21.2423 0.875291C21.2327 0.853843 21.2227 0.832684 21.2121 0.811622C21.2007 0.78882 21.1888 0.766406 21.1761 0.744281C21.1657 0.72602 21.1548 0.708146 21.1435 0.690273C21.1293 0.667761 21.1147 0.645636 21.0994 0.623898C21.0872 0.606797 21.0745 0.590179 21.0616 0.573561C21.0457 0.553272 21.0296 0.533272 21.0128 0.513853C20.9979 0.496655 20.9823 0.479941 20.9665 0.463323C20.9502 0.446222 20.9337 0.429411 20.9164 0.412986C20.8983 0.395788 20.8795 0.379171 20.8604 0.362746C20.8437 0.348447 20.8269 0.334438 20.8096 0.320911C20.7891 0.304873 20.7681 0.289511 20.7466 0.274536C20.7286 0.261879 20.7105 0.249609 20.6918 0.237822C20.6706 0.224296 20.6488 0.211349 20.6266 0.198789C20.6054 0.186809 20.5841 0.175312 20.5623 0.164298C20.542 0.154056 20.5215 0.144202 20.5004 0.134733C20.4747 0.123139 20.4487 0.112512 20.4223 0.102367C20.4113 0.098116 20.4009 0.0928021 20.3897 0.0888409C20.3816 0.0859424 20.3734 0.0842034 20.3653 0.0814015C20.3372 0.0718366 20.3085 0.063431 20.2798 0.0554119C20.2605 0.0500981 20.2413 0.0446876 20.2218 0.0401467C20.1944 0.0336734 20.1664 0.0285528 20.1385 0.0235288C20.1175 0.0197608 20.0965 0.0158962 20.0753 0.0130944C20.0495 0.0096162 20.0233 0.00749062 19.9971 0.00526847C19.974 0.00333616 19.9508 0.00130725 19.9275 0.000534327C19.9035 -0.000335212 19.8794 5.12177e-05 19.8551 0.000341064C19.8298 0.000630911 19.8046 0.000920788 19.7794 0.00246664C19.757 0.00381925 19.7347 0.00633127 19.7122 0.00865004C19.6852 0.0114519 19.6584 0.0144469 19.6317 0.018698C19.6106 0.0220796 19.5895 0.0264273 19.5683 0.0306784C19.5408 0.0362821 19.5135 0.0421756 19.4864 0.0492285C19.4774 0.0515473 19.4682 0.0528999 19.4592 0.0554119C14.3171 1.49257 9.68648 4.57045 6.4207 8.72221C3.04681 13.0121 1.26318 18.1404 1.26318 23.5526C1.26318 30.0827 3.88108 36.222 8.63449 40.8395C13.3879 45.4571 19.708 48 26.4304 48C30.4171 48 34.2305 47.1205 37.7649 45.3859C41.119 43.7397 44.1031 41.3361 46.3989 38.4336C46.3997 38.4326 46.4005 38.4317 46.4013 38.4307C46.4109 38.4184 46.4212 38.4066 46.4308 38.3943C46.4387 38.3843 46.4449 38.3737 46.4525 38.3637C46.4696 38.3408 46.4863 38.3176 46.502 38.2936C46.514 38.2755 46.525 38.2573 46.536 38.2388C46.5492 38.2168 46.5618 38.1947 46.5737 38.1719C46.5846 38.1514 46.5946 38.1307 46.6044 38.1098C46.6145 38.0879 46.6242 38.066 46.6332 38.0436C46.642 38.0219 46.6502 38.0002 46.6579 37.9783C46.6659 37.9554 46.6733 37.9322 46.6802 37.9089C46.6864 37.8874 46.6922 37.8661 46.6974 37.8444C46.7033 37.8196 46.7086 37.7946 46.7133 37.7695C46.7171 37.7489 46.7204 37.7283 46.7233 37.7075C46.727 37.6814 46.7299 37.655 46.7321 37.6286C46.7338 37.608 46.735 37.5876 46.7358 37.5669C46.7367 37.5408 46.7371 37.5146 46.7367 37.4883C46.7366 37.4666 46.7355 37.4447 46.7341 37.4226Z" fill="currentColor"/>
</svg>
