<svg width="34" height="48" viewBox="0 0 34 48" fill="none" xmlns="http://www.w3.org/2000/svg">
    <path fill-rule="evenodd" clip-rule="evenodd"
        d="M16.8 33.6001C26.0784 33.6001 33.6001 26.0784 33.6001 16.8C33.6001 7.52164 26.0784 0 16.8 0C7.52164 0 0 7.52164 0 16.8C0 26.0784 7.52164 33.6001 16.8 33.6001ZM16.8 9.60001C16.1182 9.60001 15.6622 10.418 14.7502 12.054L14.5143 12.4773C14.2553 12.9422 14.1257 13.1747 13.9236 13.328C13.7215 13.4814 13.47 13.5383 12.9667 13.6522L12.5086 13.7559C10.7375 14.1566 9.85204 14.3569 9.64137 15.0344C9.4307 15.7118 10.0343 16.4178 11.2417 17.8296L11.5541 18.1948C11.8971 18.596 12.0687 18.7966 12.1459 19.0448C12.223 19.2929 12.1971 19.5605 12.1452 20.0959L12.0979 20.5831C11.9154 22.4669 11.8242 23.4087 12.3756 23.8275C12.9274 24.246 13.7563 23.8644 15.4145 23.101L15.8434 22.9035C16.3147 22.6865 16.5502 22.578 16.8 22.578C17.0499 22.578 17.2853 22.6865 17.7567 22.9035L18.1855 23.101C19.8437 23.8644 20.6727 24.246 21.2244 23.8275C21.776 23.4087 21.6845 22.4669 21.5021 20.5831L21.4548 20.0959C21.403 19.5605 21.3771 19.2929 21.4541 19.0448C21.5314 18.7966 21.703 18.596 22.046 18.1949L22.3584 17.8296C23.5656 16.4178 24.1695 15.7118 23.9588 15.0344C23.748 14.3569 22.8624 14.1566 21.0915 13.7559L20.6333 13.6522C20.13 13.5383 19.8785 13.4814 19.6764 13.328C19.4743 13.1747 19.3447 12.9422 19.0858 12.4773L18.8499 12.054C17.9379 10.418 17.4819 9.60001 16.8 9.60001Z"
        fill="currentColor" />
    <path
        d="M5.02323 33.4594L4.11418 36.7753C2.60617 42.2756 1.85216 45.0257 2.85833 46.5315C3.21097 47.059 3.68401 47.4826 4.23294 47.762C5.79923 48.5595 8.21761 47.2995 13.0543 44.7793C14.6638 43.9407 15.4685 43.5214 16.3234 43.4302C16.6404 43.3964 16.9596 43.3964 17.2767 43.4302C18.1315 43.5214 18.9363 43.9407 20.5457 44.7793C25.3824 47.2995 27.8009 48.5595 29.3672 47.762C29.916 47.4826 30.3891 47.059 30.7416 46.5315C31.748 45.0257 30.9939 42.2756 29.486 36.7753L28.5768 33.4594C25.25 35.8155 21.1868 37.2001 16.8 37.2001C12.4133 37.2001 8.34997 35.8155 5.02323 33.4594Z"
        fill="currentColor" />
</svg>