<svg width="19" height="18" viewBox="0 0 19 18" fill="none" xmlns="http://www.w3.org/2000/svg">
    <path fill-rule="evenodd" clip-rule="evenodd"
        d="M16.822 1.29279C17.2126 1.68331 17.2126 2.31647 16.822 2.70699L2.82211 16.7069C2.43158 17.0974 1.79842 17.0974 1.4079 16.7069C1.01738 16.3164 1.01738 15.6832 1.4079 15.2927L15.4078 1.29279C15.7983 0.902266 16.4315 0.902266 16.822 1.29279Z"
        fill="currentColor" />
    <path fill-rule="evenodd" clip-rule="evenodd"
        d="M3.61509 1.99999C2.78667 1.99999 2.1151 2.67156 2.1151 3.49998C2.1151 4.3284 2.78667 4.99997 3.61509 4.99997C4.44352 4.99997 5.11509 4.3284 5.11509 3.49998C5.11509 2.67156 4.44352 1.99999 3.61509 1.99999ZM0.115112 3.49998C0.115112 1.56699 1.68211 0 3.61509 0C5.54808 0 7.11507 1.56699 7.11507 3.49998C7.11507 5.43297 5.54808 6.99996 3.61509 6.99996C1.68211 6.99996 0.115112 5.43297 0.115112 3.49998Z"
        fill="currentColor" />
    <path fill-rule="evenodd" clip-rule="evenodd"
        d="M14.6151 13C13.7867 13 13.1151 13.6716 13.1151 14.5C13.1151 15.3284 13.7867 16 14.6151 16C15.4436 16 16.1151 15.3284 16.1151 14.5C16.1151 13.6716 15.4436 13 14.6151 13ZM11.1152 14.5C11.1152 12.567 12.6821 11 14.6151 11C16.5481 11 18.1151 12.567 18.1151 14.5C18.1151 16.433 16.5481 18 14.6151 18C12.6821 18 11.1152 16.433 11.1152 14.5Z"
        fill="currentColor" />
</svg>