<svg width="48" height="48" viewBox="0 0 48 48" fill="none" xmlns="http://www.w3.org/2000/svg">
    <path fill-rule="evenodd" clip-rule="evenodd"
        d="M24 0C25.8935 0 27.4286 1.53502 27.4286 3.42857V20.5714H44.5714C46.465 20.5714 48 22.1065 48 24C48 25.8935 46.465 27.4286 44.5714 27.4286H27.4286V44.5714C27.4286 46.465 25.8935 48 24 48C22.1065 48 20.5714 46.465 20.5714 44.5714V27.4286H3.42857C1.53502 27.4286 0 25.8935 0 24C0 22.1065 1.53502 20.5714 3.42857 20.5714H20.5714V3.42857C20.5714 1.53502 22.1065 0 24 0Z"
        fill="currentColor" />
</svg>