<svg width="48" height="48" viewBox="0 0 48 48" fill="none" xmlns="http://www.w3.org/2000/svg">
    <path fill-rule="evenodd" clip-rule="evenodd"
        d="M24 4.8C20.0236 4.8 16.8 8.02355 16.8 12C16.8 15.9765 20.0236 19.2 24 19.2C27.9765 19.2 31.2 15.9765 31.2 12C31.2 8.02355 27.9765 4.8 24 4.8ZM12 12C12 5.37258 17.3726 0 24 0C30.6274 0 36 5.37258 36 12C36 18.6274 30.6274 24 24 24C17.3726 24 12 18.6274 12 12ZM5.91474 32.3147C8.16518 30.0643 11.2174 28.8 14.4 28.8H33.6C36.7826 28.8 39.8349 30.0643 42.0853 32.3147C44.3357 34.5652 45.6 37.6174 45.6 40.8V45.6C45.6 46.9255 44.5255 48 43.2 48C41.8745 48 40.8 46.9255 40.8 45.6V40.8C40.8 38.8904 40.0415 37.0591 38.6912 35.7088C37.3409 34.3586 35.5096 33.6 33.6 33.6H14.4C12.4905 33.6 10.6591 34.3586 9.30886 35.7088C7.95859 37.0591 7.20002 38.8904 7.20002 40.8V45.6C7.20002 46.9255 6.12551 48 4.80002 48C3.47454 48 2.40002 46.9255 2.40002 45.6V40.8C2.40002 37.6174 3.66431 34.5652 5.91474 32.3147Z"
        fill="currentColor" />
</svg>