<svg width="48" height="48" viewBox="0 0 48 48" fill="none" xmlns="http://www.w3.org/2000/svg">
    <path
        d="M17.1676 8.18012C20.2076 2.72672 21.7275 0 24 0C26.2726 0 27.7925 2.72669 30.8324 8.1801L31.6188 9.59097C32.4828 11.1406 32.9146 11.9155 33.5883 12.4268C34.2617 12.938 35.1003 13.1278 36.7779 13.5073L38.3053 13.8529C44.2083 15.1886 47.1601 15.8564 47.8623 18.1146C48.5645 20.3727 46.5524 22.7259 42.5278 27.4318L41.4867 28.6493C40.3431 29.9866 39.7712 30.6552 39.5139 31.4825C39.2569 32.3098 39.3433 33.2019 39.5161 34.9863L39.6735 36.6106C40.2819 42.8895 40.5862 46.0289 38.7478 47.4245C36.9092 48.8201 34.1456 47.5477 28.6184 45.0029L27.1884 44.3444C25.6179 43.6213 24.8326 43.2596 24 43.2596C23.1675 43.2596 22.3822 43.6213 20.8116 44.3444L19.3817 45.0029C13.8545 47.5477 11.0909 48.8201 9.25238 47.4245C7.4139 46.0289 7.71813 42.8895 8.32658 36.6106L8.48397 34.9863C8.65689 33.2019 8.74334 32.3098 8.48608 31.4825C8.22885 30.6552 7.65705 29.9866 6.51342 28.6493L5.47225 27.4318C1.44781 22.7259 -0.564428 20.3727 0.137813 18.1146C0.840054 15.8564 3.79167 15.1886 9.69491 13.8529L11.2222 13.5073C12.8997 13.1278 13.7384 12.938 14.4119 12.4268C15.0853 11.9155 15.5173 11.1407 16.3812 9.59097L17.1676 8.18012Z"
        fill="currentColor" />
</svg>