<svg width="48" height="48" viewBox="0 0 48 48" fill="none" xmlns="http://www.w3.org/2000/svg">
    <path fill-rule="evenodd" clip-rule="evenodd"
        d="M24 12C17.3726 12 12 17.3726 12 24C12 30.6274 17.3726 36 24 36C30.6274 36 36 30.6274 36 24C36 17.3726 30.6274 12 24 12Z"
        fill="currentColor" />
    <path
        d="M7.0296 7.02949C6.0912 7.96549 6.0912 9.48484 7.0296 10.4232C7.968 11.3616 9.48721 11.3616 10.4232 10.4232C11.3616 9.48484 11.3616 7.96549 10.4232 7.02949C9.48721 6.09109 7.968 6.09109 7.0296 7.02949Z"
        fill="currentColor" />
    <path
        d="M40.9704 40.9705C41.9088 40.0321 41.9088 38.5128 40.9704 37.5768C40.0344 36.6384 38.5128 36.6384 37.5768 37.5768C36.6384 38.5128 36.6384 40.0321 37.5768 40.9705C38.5128 41.9065 40.0344 41.9065 40.9704 40.9705Z"
        fill="currentColor" />
    <path
        d="M10.4232 40.9705C11.3616 40.0321 11.3616 38.5128 10.4232 37.5768C9.48721 36.6384 7.968 36.6384 7.0296 37.5768C6.0912 38.5128 6.0912 40.0321 7.0296 40.9705C7.968 41.9065 9.48721 41.9065 10.4232 40.9705Z"
        fill="currentColor" />
    <path
        d="M40.9704 10.4232C41.9088 9.48484 41.9088 7.96549 40.9704 7.02949C40.0344 6.09109 38.5128 6.09109 37.5768 7.02949C36.6384 7.96549 36.6384 9.48484 37.5768 10.4232C38.5128 11.3616 40.0344 11.3616 40.9704 10.4232Z"
        fill="currentColor" />
    <path
        d="M2.4 26.4C3.7248 26.4 4.8 25.3248 4.8 24C4.8 22.6752 3.7248 21.6 2.4 21.6C1.0752 21.6 0 22.6752 0 24C0 25.3248 1.0752 26.4 2.4 26.4Z"
        fill="currentColor" />
    <path
        d="M45.6 26.4C46.9248 26.4 48 25.3248 48 24C48 22.6752 46.9248 21.6 45.6 21.6C44.2752 21.6 43.2 22.6752 43.2 24C43.2 25.3248 44.2752 26.4 45.6 26.4Z"
        fill="currentColor" />
    <path
        d="M24 48C25.3248 48 26.4 46.9248 26.4 45.6C26.4 44.2752 25.3248 43.2 24 43.2C22.6752 43.2 21.6 44.2752 21.6 45.6C21.6 46.9248 22.6752 48 24 48Z"
        fill="currentColor" />
    <path
        d="M24 0C22.6752 0 21.6 1.0752 21.6 2.4C21.6 3.7248 22.6752 4.8 24 4.8C25.3248 4.8 26.4 3.7248 26.4 2.4C26.4 1.0752 25.3248 0 24 0Z"
        fill="currentColor" />
</svg>