<svg width="33" height="32" viewBox="0 0 33 32" fill="none" xmlns="http://www.w3.org/2000/svg">
    <path
        d="M27.1171 21.8722L29.8634 13.6333C32.2626 6.43587 33.4621 2.83715 31.5624 0.937516C29.6629 -0.9621 26.0642 0.237468 18.8667 2.6366L10.6278 5.38291C4.81877 7.31924 1.91428 8.28742 1.0889 9.70717C0.3037 11.0578 0.3037 12.7259 1.0889 14.0765C1.91428 15.4963 4.81877 16.4645 10.6278 18.4008C11.3477 18.6408 12.1576 18.4694 12.6967 17.9354L21.5058 9.20792C22.0013 8.71692 22.8011 8.72065 23.292 9.21624C23.783 9.71182 23.7794 10.5116 23.2837 11.0026L14.617 19.5891C14.0229 20.1778 13.8347 21.0787 14.0992 21.8722C16.0355 27.6811 17.0037 30.5858 18.4235 31.411C19.7741 32.1963 21.4422 32.1963 22.7928 31.411C24.2126 30.5858 25.1808 27.6813 27.1171 21.8722Z"
        fill="currentColor" />
</svg>