<svg width="32" height="28" viewBox="0 0 32 28" fill="none" xmlns="http://www.w3.org/2000/svg">
    <path fill-rule="evenodd" clip-rule="evenodd"
        d="M19.3903 1.11517C20.7904 0.580803 22.3208 0.489304 23.7745 0.853053C24.9306 1.14231 25.9938 1.70836 26.8753 2.49669C27.9595 2.09819 28.9878 1.55888 29.9335 0.891771L30.703 1.98261L32 2.29847C31.5427 4.17605 30.6262 5.90666 29.3372 7.33688C29.3571 7.55234 29.3674 7.76868 29.3681 7.98528L29.3681 7.98969C29.3681 16.1325 25.4477 22.1064 19.8166 25.1035C14.2181 28.0834 7.06296 28.0504 0.686757 24.508C0.146371 24.2078 -0.1172 23.5759 0.0497279 22.9807C0.216656 22.3854 0.77041 21.9827 1.3881 22.0073C3.63984 22.0968 5.86888 21.6491 7.89576 20.7153C5.88919 19.4771 4.4446 18.0072 3.44027 16.4214C2.10051 14.306 1.59476 12.065 1.50329 10.0527C1.41208 8.04613 1.73082 6.23949 2.06588 4.94392C2.23421 4.29303 2.40887 3.76271 2.54351 3.39031C2.6109 3.20389 2.6685 3.05642 2.71059 2.95253C2.73164 2.90056 2.74884 2.85943 2.76147 2.82973L2.77692 2.79378L2.78086 2.78477C2.79026 2.76317 2.80027 2.74175 2.81088 2.72053L4.00486 3.31751L5.09729 2.55033C6.31945 4.29062 7.95304 5.70164 9.85256 6.65774C11.3635 7.41823 13.0053 7.87211 14.6837 7.99825C14.6739 6.51696 15.114 5.06712 15.9464 3.84088C16.7881 2.60101 17.9903 1.64955 19.3903 1.11517Z"
        fill="currentColor" />
</svg>