<svg width="57" height="48" viewBox="0 0 57 48" fill="none" xmlns="http://www.w3.org/2000/svg">
    <path fill-rule="evenodd" clip-rule="evenodd"
        d="M52.391 13.724C52.2355 13.7142 52.0663 13.7142 51.891 13.7143L44.9667 13.7143C39.2953 13.7143 34.4426 18.1785 34.4426 24C34.4426 29.8214 39.2953 34.2857 44.9667 34.2857H51.891C52.0663 34.2857 52.2355 34.286 52.391 34.2761C54.6948 34.1305 56.7319 32.3279 56.9033 29.8099C56.9146 29.6448 56.9143 29.4668 56.9143 29.3019V18.6981C56.9143 18.5332 56.9146 18.3552 56.9033 18.1901C56.7319 15.6722 54.6948 13.8694 52.391 13.724ZM44.3567 26.7429C45.8167 26.7429 47.0002 25.5149 47.0002 24C47.0002 22.4851 45.8167 21.2571 44.3567 21.2571C42.8966 21.2571 41.7128 22.4851 41.7128 24C41.7128 25.5149 42.8966 26.7429 44.3567 26.7429Z"
        fill="currentColor" />
    <path fill-rule="evenodd" clip-rule="evenodd"
        d="M51.8891 38.4C52.2981 38.3893 52.6077 38.7681 52.4966 39.162C51.9461 41.116 51.072 42.7817 49.6699 44.1841C47.6171 46.2366 45.0141 47.1475 41.7984 47.5801C38.6737 48 34.6812 48 29.6404 48H23.8453C18.8046 48 14.812 48 11.6873 47.5801C8.47148 47.1475 5.86865 46.2366 3.81597 44.1841C1.76333 42.1314 0.852372 39.5284 0.420043 36.3127C-8.08672e-05 33.188 -5.36142e-05 29.1955 1.24295e-06 24.1547V23.8453C-5.36142e-05 18.8046 -8.08672e-05 14.812 0.420043 11.6873C0.852372 8.47148 1.76333 5.86865 3.81597 3.81597C5.86865 1.76333 8.47148 0.852372 11.6873 0.420043C14.812 -8.08672e-05 18.8045 -5.36142e-05 23.8453 1.24295e-06H29.6404C34.6812 -5.36142e-05 38.6737 -8.08672e-05 41.7984 0.420043C45.0141 0.852372 47.6171 1.76333 49.6699 3.81597C51.072 5.21834 51.9459 6.88386 52.4966 8.83798C52.6077 9.23177 52.2981 9.61062 51.8891 9.6L44.9664 9.60003C37.186 9.60003 30.328 15.7465 30.328 24C30.328 32.2535 37.186 38.4 44.9664 38.4H51.8891ZM10.2857 10.9714C9.1496 10.9714 8.22857 11.8925 8.22857 13.0286C8.22857 14.1647 9.1496 15.0857 10.2857 15.0857H21.2571C22.3932 15.0857 23.3143 14.1647 23.3143 13.0286C23.3143 11.8925 22.3932 10.9714 21.2571 10.9714H10.2857Z"
        fill="currentColor" />
</svg>