<svg width="33" height="32" viewBox="0 0 33 32" fill="none" xmlns="http://www.w3.org/2000/svg">
    <path fill-rule="evenodd" clip-rule="evenodd"
        d="M32.5 16C32.5 24.8365 25.3365 32 16.5 32C13.9405 32 11.5214 31.399 9.37605 30.3304C8.80594 30.0466 8.15429 29.952 7.53902 30.1166L3.97736 31.0696C2.43122 31.4832 1.01672 30.0688 1.43042 28.5227L2.38339 24.961C2.54802 24.3458 2.4535 23.6941 2.16954 23.124C1.10099 20.9786 0.5 18.5595 0.5 16C0.5 7.16344 7.66344 0 16.5 0C25.3365 0 32.5 7.16344 32.5 16ZM15.3492 11.2139L14.7885 10.2092C14.0243 8.83996 12.1042 8.67826 10.9007 9.88177C10.1775 10.6049 9.61479 11.4909 9.57766 12.4702C9.51516 14.1188 9.9324 16.9186 12.7409 19.7271C15.5494 22.5357 18.3492 22.9529 19.9978 22.8903C20.9771 22.8533 21.8631 22.2905 22.5863 21.5674C23.7897 20.3638 23.6281 18.4437 22.2588 17.6795L21.2541 17.1188C20.3473 16.6128 19.1578 16.8159 18.3608 17.6129C18.3608 17.6129 17.3934 18.579 15.6412 16.8269C13.8884 15.0741 14.8551 14.1072 14.8551 14.1072C15.6521 13.3102 15.8553 12.1207 15.3492 11.2139Z"
        fill="currentColor" />
</svg>