<svg width="32" height="23" viewBox="0 0 32 23" fill="none" xmlns="http://www.w3.org/2000/svg">
    <path fill-rule="evenodd" clip-rule="evenodd"
        d="M2.34315 21.0312C4.68629 22.6342 8.45752 22.6342 16 22.6342C23.5424 22.6342 27.3138 22.6342 29.6568 21.0312C32 19.4283 32 16.8483 32 11.6886C32 6.52873 32 3.94882 29.6568 2.34588C27.3138 0.74292 23.5424 0.74292 16 0.74292C8.45752 0.74292 4.68629 0.74292 2.34315 2.34588C-2.50401e-07 3.94882 0 6.52873 0 11.6886C0 16.8483 -2.50401e-07 19.4283 2.34315 21.0312ZM15.734 8.17873C16.0384 8.36381 16.3324 8.55235 16.592 8.73461C16.8879 8.94236 17.2099 9.19169 17.5345 9.45655L17.5349 9.4569C18.7106 10.416 19.2985 10.8956 19.2985 11.7159C19.2985 12.5362 18.7106 13.0158 17.5349 13.9749L17.5345 13.9753C17.2099 14.2401 16.8879 14.4895 16.592 14.6972C16.3324 14.8795 16.0384 15.068 15.734 15.2531L15.7338 15.2533C14.5607 15.9666 13.9742 16.3232 13.4481 15.9283C12.922 15.5334 12.8742 14.7065 12.7785 13.053C12.7515 12.5853 12.7344 12.1269 12.7344 11.7159C12.7344 11.3049 12.7515 10.8465 12.7785 10.3788L12.7785 10.3787C12.8742 8.72526 12.922 7.89845 13.4481 7.50351C13.9742 7.10856 14.5608 7.46528 15.734 8.17871L15.734 8.17873Z"
        fill="currentColor" />
</svg>